<svg id="egcpLl5AePX1" xmlns="http://www.w3.org/2000/svg" xmlns:xlink="http://www.w3.org/1999/xlink" viewBox="0 0 512 512" shape-rendering="geometricPrecision" text-rendering="geometricPrecision"><path d="M510.9005,145.27027L442.604,432.09391C431.449498,478.939557,389.592798,511.999943,341.43745,512h-127.36345c-34.634328-.000013-67.963243-13.216752-93.18489-36.95291L12.59072,373.12723c-16.045422-15.144042-16.794971-40.421681-1.675075-56.489858s40.396379-16.855738,56.487275-1.760022l60.59342,57.02528v0c-.000001-27.244115-3.930588-54.345727-11.6703-80.46734L73.63726,147.36011c-6.273596-21.185182,5.814633-43.444919,26.999815-49.718515s43.444919,5.814633,49.718515,26.999815l37.15458,125.39477c1.290306,4.354989,5.831243,6.873854,10.208969,5.662933s6.978728-5.705316,5.847591-10.104333L153.26183,49.95406c-5.505578-21.392286,7.373144-43.197312,28.76543-48.70289s43.197312,7.373144,48.70289,28.76543l56.09491,218.15825c1.208107,4.698811,5.499172,7.942192,10.349328,7.822492s8.976004-3.570807,9.950852-8.323492L344.80766,63.96966c2.292305-11.102976,9.18268-20.714349,18.961923-26.449953s21.531129-7.058069,32.340527-3.639347c19.86073,6.2998,30.86262,27.67378,26.67564,48.08487l-33.83869,164.966c-.829027,4.040424,1.737156,7.998612,5.764105,8.890797s8.02483-1.61171,8.979955-5.624197l29.3973-123.45874c3.310282-13.899789,13.784558-24.97771,27.477269-29.060817s28.523611-.551078,38.90604,9.265605s14.739053,24.426632,11.428771,38.326422Z" transform="translate(-.048619 0.019631)" fill="#fff"/></svg>
